<?xml version="1.0" encoding="UTF-8"?><svg id="Layer_1" xmlns="http://www.w3.org/2000/svg" xmlns:xlink="http://www.w3.org/1999/xlink" viewBox="0 0 256 256"><defs><style>.cls-1{fill:url(#radial-gradient);}.cls-1,.cls-2{stroke-width:0px;}.cls-3{fill:none;stroke:#192e63;stroke-linecap:round;stroke-linejoin:round;stroke-width:5px;}.cls-2{fill:url(#radial-gradient-2);}</style><radialGradient id="radial-gradient" cx="65.71" cy="127.23" fx="65.71" fy="95.12" r="100.99" gradientUnits="userSpaceOnUse"><stop offset="0" stop-color="#fff" stop-opacity="0"/><stop offset=".03" stop-color="#fff" stop-opacity=".05"/><stop offset=".19" stop-color="#fff" stop-opacity=".34"/><stop offset=".33" stop-color="#fff" stop-opacity=".57"/><stop offset=".47" stop-color="#fff" stop-opacity=".76"/><stop offset=".59" stop-color="#fff" stop-opacity=".89"/><stop offset=".69" stop-color="#fff" stop-opacity=".97"/><stop offset=".75" stop-color="#fff"/></radialGradient><radialGradient id="radial-gradient-2" cx="190.29" fx="190.29" xlink:href="#radial-gradient"/></defs><path class="cls-1" d="m100.37,55.83c-7.86-2.86-19.29-4.29-34.3-4.29s-25.61,1.13-32.51,3.39c-6.91,2.27-11.56,6.2-13.93,11.79-2.38,5.6-3.57,14.35-3.57,26.26s1.37,20.37,4.11,26.08c2.74,5.72,7.62,9.71,14.65,11.97,6.58,2.12,16.18,3.23,28.73,3.37l.39,1.1c-7.63,6.91-13.82,12.86-18.58,17.86-4.77,5-9.77,11.2-15.01,18.58l-20.72,29.65,2.14,2.86h61.81l18.58-25.37c9.76-13.1,17.15-26.56,22.15-40.37,5-13.81,7.5-27.51,7.5-41.09,0-12.15-1.61-21.44-4.82-27.87-3.22-6.43-8.75-11.08-16.61-13.93Z"/><path class="cls-3" d="m100.37,55.83c-7.86-2.86-19.29-4.29-34.3-4.29s-25.61,1.13-32.51,3.39c-6.91,2.27-11.56,6.2-13.93,11.79-2.38,5.6-3.57,14.35-3.57,26.26s1.37,20.37,4.11,26.08c2.74,5.72,7.62,9.71,14.65,11.97,6.58,2.12,16.18,3.23,28.73,3.37l.39,1.1c-7.63,6.91-13.82,12.86-18.58,17.86-4.77,5-9.77,11.2-15.01,18.58l-20.72,29.65,2.14,2.86h61.81l18.58-25.37c9.76-13.1,17.15-26.56,22.15-40.37,5-13.81,7.5-27.51,7.5-41.09,0-12.15-1.61-21.44-4.82-27.87-3.22-6.43-8.75-11.08-16.61-13.93Z"/><path class="cls-2" d="m224.94,55.83c-7.86-2.86-19.29-4.29-34.3-4.29s-25.61,1.13-32.51,3.39c-6.91,2.27-11.56,6.2-13.93,11.79-2.38,5.6-3.57,14.35-3.57,26.26s1.37,20.37,4.11,26.08c2.74,5.72,7.62,9.71,14.65,11.97,6.58,2.12,16.18,3.23,28.73,3.37l.39,1.1c-7.63,6.91-13.82,12.86-18.58,17.86-4.77,5-9.77,11.2-15.01,18.58l-20.72,29.65,2.14,2.86h61.81l18.58-25.37c9.76-13.1,17.15-26.56,22.15-40.37,5-13.81,7.5-27.51,7.5-41.09,0-12.15-1.61-21.44-4.82-27.87-3.22-6.43-8.75-11.08-16.61-13.93Z"/><path class="cls-3" d="m224.94,55.83c-7.86-2.86-19.29-4.29-34.3-4.29s-25.61,1.13-32.51,3.39c-6.91,2.27-11.56,6.2-13.93,11.79-2.38,5.6-3.57,14.35-3.57,26.26s1.37,20.37,4.11,26.08c2.74,5.72,7.62,9.71,14.65,11.97,6.58,2.12,16.18,3.23,28.73,3.37l.39,1.1c-7.63,6.91-13.82,12.86-18.58,17.86-4.77,5-9.77,11.2-15.01,18.58l-20.72,29.65,2.14,2.86h61.81l18.58-25.37c9.76-13.1,17.15-26.56,22.15-40.37,5-13.81,7.5-27.51,7.5-41.09,0-12.15-1.61-21.44-4.82-27.87-3.22-6.43-8.75-11.08-16.61-13.93Z"/></svg>