<?xml version="1.0" encoding="utf-8"?>
<!-- Generator: Adobe Illustrator 28.0.0, SVG Export Plug-In . SVG Version: 6.00 Build 0)  -->
<svg version="1.1" id="Layer_1" xmlns="http://www.w3.org/2000/svg" xmlns:xlink="http://www.w3.org/1999/xlink" x="0px" y="0px"
	 viewBox="0 0 540 501" style="enable-background:new 0 0 540 501;" preserveAspectRatio="none" xml:space="preserve">
<style type="text/css">
	.st0{fill:#192E63;}
	.st1{fill:#8D9BC7;}
	.st2{fill:#CED5EB;}
	.st3{fill:#79599E;}
	.st4{fill:#40ADAD;}
	.st5{fill:#D34C69;}
	.st6{fill:#FFD261;}
	.st7{fill:#8E8E8E;}
</style>
<g>
	<rect y="500" class="st0" width="540" height="1"/>
	<rect y="300" class="st1" width="540" height="1"/>
	<rect y="400" class="st1" width="540" height="1"/>
	<rect y="200" class="st1" width="540" height="1"/>
	<rect y="100" class="st1" width="540" height="1"/>
	<rect class="st1" width="540" height="1"/>
	<rect y="20" class="st2" width="540" height="1"/>
	<rect y="40" class="st2" width="540" height="1"/>
	<rect y="80" class="st2" width="540" height="1"/>
	<rect y="60" class="st2" width="540" height="1"/>
	<rect y="120" class="st2" width="540" height="1"/>
	<rect y="140" class="st2" width="540" height="1"/>
	<rect y="180" class="st2" width="540" height="1"/>
	<rect y="160" class="st2" width="540" height="1"/>
	<rect y="220" class="st2" width="540" height="1"/>
	<rect y="240" class="st2" width="540" height="1"/>
	<rect y="280" class="st2" width="540" height="1"/>
	<rect y="260" class="st2" width="540" height="1"/>
	<rect y="320" class="st2" width="540" height="1"/>
	<rect y="340" class="st2" width="540" height="1"/>
	<rect y="380" class="st2" width="540" height="1"/>
	<rect y="360" class="st2" width="540" height="1"/>
	<rect y="420" class="st2" width="540" height="1"/>
	<rect y="440" class="st2" width="540" height="1"/>
	<rect y="480" class="st2" width="540" height="1"/>
	<rect y="460" class="st2" width="540" height="1"/>
</g>
<g>
	<g>
		<path class="st3" d="M90,500.5H18v-2h72V500.5z"/>
		<path class="st4" d="M90,498.5H18v-8h72V498.5z"/>
		<path class="st5" d="M90,490.5H18v-4h72V490.5z"/>
		<path class="st6" d="M90,486.5H18v-8h72V486.5z"/>
	</g>
	<g>
		<path class="st3" d="M198,500.5h-72v-12h72V500.5z"/>
		<path class="st4" d="M198,488.5h-72v-18h72V488.5z"/>
		<path class="st5" d="M198,470.5h-72v-14h72V470.5z"/>
		<path class="st6" d="M198,456.5h-72v-4h72V456.5z"/>
	</g>
	<g>
		<path class="st3" d="M306,500.5h-72v-38h72V500.5z"/>
		<path class="st4" d="M306,462.5h-72v-26h72V462.5z"/>
		<path class="st5" d="M306,436.5h-72v-14h72V436.5z"/>
		<path class="st6" d="M306,422.5h-72v-10h72V422.5z"/>
		<path class="st7" d="M306,408.5h-72v4h72V408.5z"/>
	</g>
	<g>
		<path class="st3" d="M414,500.5h-72v-118h72V500.5z"/>
		<path class="st4" d="M414,382.5h-72v-32h72V382.5z"/>
		<path class="st5" d="M414,350.5h-72v-26h72V350.5z"/>
		<path class="st6" d="M414,324.5h-72v-22h72V324.5z"/>
		<path class="st7" d="M414,294.5h-72v8h72V294.5z"/>
	</g>
	<g>
		<path class="st3" d="M522,500.5h-72v-306h72V500.5z"/>
		<path class="st4" d="M522,194.5h-72v-52h72V194.5z"/>
		<path class="st5" d="M522,142.5h-72v-60h72V142.5z"/>
		<path class="st6" d="M522,82.5h-72v-56h72V82.5z"/>
		<path class="st7" d="M522,6.5h-72v20h72V6.5z"/>
	</g>
</g>
</svg>
