<?xml version="1.0" encoding="utf-8"?>
<!-- Generator: Adobe Illustrator 28.0.0, SVG Export Plug-In . SVG Version: 6.00 Build 0)  -->
<svg version="1.1" id="Layer_1" xmlns="http://www.w3.org/2000/svg" xmlns:xlink="http://www.w3.org/1999/xlink" x="0px" y="0px"
	 viewBox="0 0 1080 481" style="enable-background:new 0 0 1080 481;" preserveAspectRatio="none" xml:space="preserve">
<style type="text/css">
	.st0{fill:#192E63;}
	.st1{fill:#8D9BC7;}
	.st2{fill:#CED5EB;}
	.st3{fill:#FFD261;}
	.st4{fill:#79599E;}
	.st5{fill:#8E8E8E;}
</style>
<g>
	<rect y="480" class="st0" width="1080" height="1"/>
	<rect y="320" class="st1" width="1080" height="1"/>
	<rect y="400" class="st1" width="1080" height="1"/>
	<rect y="240" class="st1" width="1080" height="1"/>
	<rect y="160" class="st1" width="1080" height="1"/>
	<rect y="80" class="st1" width="1080" height="1"/>
	<rect y="100" class="st2" width="1080" height="1"/>
	<rect y="140" class="st2" width="1080" height="1"/>
	<rect y="120" class="st2" width="1080" height="1"/>
	<rect y="180" class="st2" width="1080" height="1"/>
	<rect y="220" class="st2" width="1080" height="1"/>
	<rect y="200" class="st2" width="1080" height="1"/>
	<rect y="260" class="st2" width="1080" height="1"/>
	<rect y="300" class="st2" width="1080" height="1"/>
	<rect y="280" class="st2" width="1080" height="1"/>
	<rect y="340" class="st2" width="1080" height="1"/>
	<rect y="380" class="st2" width="1080" height="1"/>
	<rect y="360" class="st2" width="1080" height="1"/>
	<rect y="420" class="st2" width="1080" height="1"/>
	<rect y="460" class="st2" width="1080" height="1"/>
	<rect y="440" class="st2" width="1080" height="1"/>
	<rect class="st1" width="1080" height="1"/>
	<rect y="20" class="st2" width="1080" height="1"/>
	<rect y="60" class="st2" width="1080" height="1"/>
	<rect y="40" class="st2" width="1080" height="1"/>
</g>
<g>
	<rect x="18" y="40.5" class="st3" width="72" height="440"/>
	<rect x="126" y="104.5" class="st3" width="72" height="376"/>
	<rect x="234" y="160.5" class="st4" width="72" height="320"/>
	<rect x="342" y="184.5" class="st5" width="72" height="296"/>
	<rect x="450" y="192.5" class="st4" width="72" height="288"/>
	<rect x="558" y="224.5" class="st3" width="72" height="256"/>
	<rect x="666" y="240.5" class="st4" width="72" height="240"/>
	<rect x="882" y="272.5" class="st4" width="72" height="208"/>
	<rect x="774" y="264.5" class="st5" width="72" height="216"/>
	<rect x="990" y="288.5" class="st4" width="72" height="192"/>
</g>
</svg>
