<?xml version="1.0" encoding="utf-8"?>
<!-- Generator: Adobe Illustrator 28.0.0, SVG Export Plug-In . SVG Version: 6.00 Build 0)  -->
<svg version="1.1" id="Layer_1" xmlns="http://www.w3.org/2000/svg" xmlns:xlink="http://www.w3.org/1999/xlink" x="0px" y="0px"
	 viewBox="0 0 648 601" style="enable-background:new 0 0 648 601;" preserveAspectRatio="none" xml:space="preserve">
<style type="text/css">
	.st0{fill:#192E63;}
	.st1{fill:#8D9BC7;}
	.st2{fill:#CED5EB;}
	.st3{fill:#8E8E8E;}
</style>
<g>
	<rect y="600" class="st0" width="648" height="1"/>
	<rect y="400" class="st1" width="648" height="1"/>
	<rect y="500" class="st1" width="648" height="1"/>
	<rect y="300" class="st1" width="648" height="1"/>
	<rect y="200" class="st1" width="648" height="1"/>
	<rect y="100" class="st1" width="648" height="1"/>
	<rect class="st1" width="648" height="1"/>
	<rect y="125" class="st2" width="648" height="1"/>
	<rect y="175" class="st2" width="648" height="1"/>
	<rect y="150" class="st2" width="648" height="1"/>
	<rect y="225" class="st2" width="648" height="1"/>
	<rect y="275" class="st2" width="648" height="1"/>
	<rect y="250" class="st2" width="648" height="1"/>
	<rect y="325" class="st2" width="648" height="1"/>
	<rect y="375" class="st2" width="648" height="1"/>
	<rect y="350" class="st2" width="648" height="1"/>
	<rect y="425" class="st2" width="648" height="1"/>
	<rect y="475" class="st2" width="648" height="1"/>
	<rect y="450" class="st2" width="648" height="1"/>
	<rect y="525" class="st2" width="648" height="1"/>
	<rect y="575" class="st2" width="648" height="1"/>
	<rect y="550" class="st2" width="648" height="1"/>
	<rect y="75" class="st2" width="648" height="1"/>
	<rect y="25" class="st2" width="648" height="1"/>
	<rect y="50" class="st2" width="648" height="1"/>
</g>
<g>
	<rect x="126" y="549.5" class="st3" width="72" height="51"/>
	<rect x="234" y="523.5" class="st3" width="72" height="77"/>
	<rect x="342" y="446.5" class="st3" width="72" height="154"/>
	<rect x="558" y="90.5" class="st3" width="72" height="510"/>
	<rect x="450" y="420.5" class="st3" width="72" height="180"/>
	<rect x="18" y="558.5" class="st3" width="72" height="42"/>
</g>
</svg>
