<?xml version="1.0" encoding="utf-8"?>
<!-- Generator: Adobe Illustrator 28.0.0, SVG Export Plug-In . SVG Version: 6.00 Build 0)  -->
<svg version="1.1" id="Layer_1" xmlns="http://www.w3.org/2000/svg" xmlns:xlink="http://www.w3.org/1999/xlink" x="0px" y="0px"
	 viewBox="0 0 540 481" style="enable-background:new 0 0 540 481;" preserveAspectRatio="none" xml:space="preserve">
<style type="text/css">
	.st0{fill:#192E63;}
	.st1{fill:#8D9BC7;}
	.st2{fill:#CED5EB;}
	.st3{fill:#DE7C90;}
	.st4{fill:#73D9C6;}
</style>
<g>
	<rect y="480" class="st0" width="540" height="1"/>
	<rect y="320" class="st1" width="540" height="1"/>
	<rect y="400" class="st1" width="540" height="1"/>
	<rect y="240" class="st1" width="540" height="1"/>
	<rect y="160" class="st1" width="540" height="1"/>
	<rect y="80" class="st1" width="540" height="1"/>
	<rect y="100" class="st2" width="540" height="1"/>
	<rect y="140" class="st2" width="540" height="1"/>
	<rect y="120" class="st2" width="540" height="1"/>
	<rect y="180" class="st2" width="540" height="1"/>
	<rect y="220" class="st2" width="540" height="1"/>
	<rect y="200" class="st2" width="540" height="1"/>
	<rect y="260" class="st2" width="540" height="1"/>
	<rect y="300" class="st2" width="540" height="1"/>
	<rect y="280" class="st2" width="540" height="1"/>
	<rect y="340" class="st2" width="540" height="1"/>
	<rect y="380" class="st2" width="540" height="1"/>
	<rect y="360" class="st2" width="540" height="1"/>
	<rect y="420" class="st2" width="540" height="1"/>
	<rect y="460" class="st2" width="540" height="1"/>
	<rect y="440" class="st2" width="540" height="1"/>
	<rect class="st1" width="540" height="1"/>
	<rect y="20" class="st2" width="540" height="1"/>
	<rect y="60" class="st2" width="540" height="1"/>
	<rect y="40" class="st2" width="540" height="1"/>
</g>
<g>
	<g>
		<rect x="453" y="171" class="st3" width="69" height="309.6"/>
		<rect x="378" y="180.6" class="st4" width="69" height="300"/>
	</g>
	<g>
		<rect x="198" y="133.4" class="st4" width="69" height="347.2"/>
		<rect x="273" y="49.4" class="st3" width="69" height="431.2"/>
	</g>
	<g>
		<rect x="18" y="335.8" class="st4" width="69" height="144.8"/>
		<rect x="93" y="277.4" class="st3" width="69" height="203.2"/>
	</g>
</g>
</svg>
