<?xml version="1.0" encoding="utf-8"?>
<!-- Generator: Adobe Illustrator 28.0.0, SVG Export Plug-In . SVG Version: 6.00 Build 0)  -->
<svg version="1.1" id="Layer_1" xmlns="http://www.w3.org/2000/svg" xmlns:xlink="http://www.w3.org/1999/xlink" x="0px" y="0px"
	 viewBox="0 0 460 502" style="enable-background:new 0 0 460 502;" preserveAspectRatio="none" xml:space="preserve">
<style type="text/css">
	.st0{fill:#8D9BC7;}
	.st1{fill:#CED5EB;}
	.st2{opacity:0.5;fill:#DE7C90;}
	.st3{opacity:0.5;fill:#FFE380;}
	.st4{fill:none;stroke:#FFE380;stroke-width:2;stroke-miterlimit:10;}
	.st5{opacity:0.5;fill:#73D9C6;}
	.st6{fill:none;stroke:#73D9C6;stroke-width:2;stroke-miterlimit:10;}
	.st7{fill:#192E63;}
	.st8{fill:none;stroke:#DE7C90;stroke-width:2;stroke-miterlimit:10;}
</style>
<g>
	<rect y="300.5" class="st0" width="460" height="1"/>
	<rect y="400.5" class="st0" width="460" height="1"/>
	<rect y="200.5" class="st0" width="460" height="1"/>
	<rect y="100.5" class="st0" width="460" height="1"/>
	<rect y="0.5" class="st0" width="460" height="1"/>
	<rect y="25.5" class="st1" width="460" height="1"/>
	<rect y="50.5" class="st1" width="460" height="1"/>
	<rect y="75.5" class="st1" width="460" height="1"/>
	<rect y="125.5" class="st1" width="460" height="1"/>
	<rect y="150.5" class="st1" width="460" height="1"/>
	<rect y="175.5" class="st1" width="460" height="1"/>
	<rect y="225.5" class="st1" width="460" height="1"/>
	<rect y="250.5" class="st1" width="460" height="1"/>
	<rect y="275.5" class="st1" width="460" height="1"/>
	<rect y="325.5" class="st1" width="460" height="1"/>
	<rect y="350.5" class="st1" width="460" height="1"/>
	<rect y="375.5" class="st1" width="460" height="1"/>
	<rect y="425.5" class="st1" width="460" height="1"/>
	<rect y="450.5" class="st1" width="460" height="1"/>
	<rect y="475.5" class="st1" width="460" height="1"/>
</g>
<polygon class="st2" points="0,1 0,266.1 20,276 40,261 60,271 80,256 100,256 120,246 140,241 160,236 180,216 200,196 220,211 
	240,191 260,191 280,171 300,186 320,166 340,151 360,176 380,161 400,151 420,126 440,166 460,166 460,1 "/>
<polygon class="st3" points="440,166 420,126 400,151 380,161 360,176 340,151 320,166 300,186 280,171 260,191 240,191 220,211 
	200,196 180,216 160,236 140,241 120,246 100,256 80,256 60,271 40,261 20,276 0,266.1 0,301.2 20,311 40,281 60,291 80,276 
	100,281 120,266 140,261 160,256 180,241 200,221 220,231 240,206 260,211 280,186 300,201 320,186 340,166 360,186 380,171 
	400,156 420,146 440,181 460,181 460,166 "/>
<polyline class="st4" points="460,166 440,166 420,126 400,151 380,161 360,176 340,151 320,166 300,186 280,171 260,191 240,191 
	220,211 200,196 180,216 160,236 140,241 120,246 100,256 80,256 60,271 40,261 20,276 0,266.1 "/>
<polygon class="st5" points="460,181 440,181 420,146 400,156 380,171 360,186 340,166 320,186 300,201 280,186 260,211 240,206 
	220,231 200,221 180,241 160,256 140,261 120,266 100,281 80,276 60,291 40,281 20,311 0,301.2 0,501 460,501 "/>
<polyline class="st6" points="460,181 440,181 420,146 400,156 380,171 360,186 340,166 320,186 300,201 280,186 260,211 240,206 
	220,231 200,221 180,241 160,256 140,261 120,266 100,281 80,276 60,291 40,281 20,311 0,301.2 "/>
<rect y="500.5" class="st7" width="460" height="1"/>
<line class="st8" x1="0" y1="1" x2="460" y2="1"/>
</svg>
